<svg xmlns="http://www.w3.org/2000/svg" xmlns:xlink="http://www.w3.org/1999/xlink" width="1200" zoomAndPan="magnify" viewBox="0 0 900 173.999997" height="232" preserveAspectRatio="xMidYMid meet" version="1.0"><defs><g/></defs><g fill="#ffffff" fill-opacity="1"><g transform="translate(145.937622, 169.505471)"><g><path d="M 116.339844 -108.394531 L 118.15625 -108.394531 L 149.140625 0 L 181.261719 0 L 224.734375 -163.78125 L 189.320312 -163.78125 L 164.011719 -48.351562 L 162.195312 -48.351562 L 131.773438 -163.78125 L 102.832031 -163.78125 L 72.980469 -48.351562 L 71.164062 -48.351562 L 45.628906 -163.78125 L 9.988281 -163.78125 L 53.347656 0 L 85.695312 0 Z M 116.339844 -108.394531 "/></g></g></g><g fill="#ffffff" fill-opacity="1"><g transform="translate(364.505888, 169.505471)"><g><path d="M 61.746094 -22.925781 C 50.28125 -22.925781 42.222656 -28.601562 42.222656 -37.910156 C 42.222656 -46.875 49.144531 -51.984375 63.332031 -53.003906 L 88.644531 -54.59375 L 88.644531 -45.402344 C 88.644531 -32.6875 77.066406 -22.925781 61.746094 -22.925781 Z M 50.847656 1.929688 C 67.078125 1.929688 80.699219 -4.878906 87.167969 -16.34375 L 89.210938 -16.34375 L 89.210938 0 L 121.21875 0 L 121.21875 -85.464844 C 121.21875 -112.253906 102.492188 -127.917969 69.347656 -127.917969 C 37.910156 -127.917969 16.683594 -113.386719 14.527344 -90.234375 L 44.945312 -90.234375 C 47.671875 -97.726562 55.617188 -101.8125 67.535156 -101.8125 C 81.152344 -101.8125 88.644531 -95.910156 88.644531 -85.464844 L 88.644531 -75.25 L 58.339844 -73.433594 C 27.242188 -71.621094 9.875 -58.453125 9.875 -35.753906 C 9.875 -12.824219 26.785156 1.929688 50.847656 1.929688 Z M 50.847656 1.929688 "/></g></g></g><g fill="#ffffff" fill-opacity="1"><g transform="translate(485.57628, 169.505471)"><g><path d="M 16.570312 0 L 49.601562 0 L 49.601562 -69.347656 C 49.601562 -86.941406 61.972656 -97.613281 80.019531 -97.613281 C 85.351562 -97.613281 93.070312 -96.589844 95.683594 -95.566406 L 95.683594 -125.644531 C 92.84375 -126.667969 87.28125 -127.234375 82.742188 -127.234375 C 66.851562 -127.234375 53.914062 -117.699219 50.621094 -105.214844 L 48.578125 -105.214844 L 48.578125 -125.191406 L 16.570312 -125.191406 Z M 16.570312 0 "/></g></g></g><g fill="#ffffff" fill-opacity="1"><g transform="translate(570.666687, 169.505471)"><g><path d="M 16.570312 0 L 49.601562 0 L 49.601562 -75.363281 C 49.601562 -89.324219 58.792969 -99.425781 71.734375 -99.425781 C 84.671875 -99.425781 92.390625 -91.824219 92.390625 -78.542969 L 92.390625 0 L 124.171875 0 L 124.171875 -76.613281 C 124.171875 -89.894531 132.796875 -99.425781 146.191406 -99.425781 C 160.152344 -99.425781 167.074219 -92.050781 167.074219 -77.179688 L 167.074219 0 L 200.101562 0 L 200.101562 -85.921875 C 200.101562 -111.6875 184.554688 -127.917969 159.582031 -127.917969 C 142.105469 -127.917969 127.6875 -118.722656 121.902344 -104.761719 L 119.859375 -104.761719 C 114.863281 -119.289062 102.832031 -127.917969 85.238281 -127.917969 C 68.78125 -127.917969 55.730469 -119.0625 50.621094 -104.761719 L 48.578125 -104.761719 L 48.578125 -125.191406 L 16.570312 -125.191406 Z M 16.570312 0 "/></g></g></g><g fill="#ffffff" fill-opacity="1"><g transform="translate(770.166708, 169.505471)"><g><path d="M 70.710938 -102.605469 C 86.148438 -102.605469 96.136719 -92.277344 96.816406 -75.707031 L 43.472656 -75.707031 C 44.605469 -91.9375 55.390625 -102.605469 70.710938 -102.605469 Z M 97.496094 -35.640625 C 93.980469 -27.355469 85.011719 -22.699219 71.960938 -22.699219 C 54.707031 -22.699219 43.8125 -34.277344 43.359375 -52.890625 L 43.359375 -54.59375 L 129.277344 -54.59375 L 129.277344 -64.695312 C 129.277344 -104.421875 107.484375 -127.917969 70.597656 -127.917969 C 33.371094 -127.917969 10.441406 -102.71875 10.441406 -61.972656 C 10.441406 -21.339844 32.914062 2.722656 71.050781 2.722656 C 101.699219 2.722656 123.261719 -12.03125 128.257812 -35.640625 Z M 97.496094 -35.640625 "/></g></g></g><g fill="#ffffff" fill-opacity="1"><g transform="translate(-20.652949, 169.505471)"><g><path d="M 19.863281 -163.894531 L 19.863281 0 L 84.332031 0 C 133.363281 0 161.171875 -29.851562 161.171875 -83.082031 C 161.171875 -134.386719 133.023438 -163.894531 84.332031 -163.894531 Z M 54.140625 -134.613281 L 78.882812 -134.613281 C 108.621094 -134.613281 126.214844 -115.65625 126.214844 -82.515625 C 126.214844 -47.898438 109.1875 -29.285156 78.882812 -29.285156 L 54.140625 -29.285156 Z M 54.140625 -134.613281 "/></g></g></g><g fill="#ffffff" fill-opacity="1"><g transform="translate(16.283728, 140.799074)"><g><path d="M 12.953125 -106.871094 L 12.953125 0 L 54.988281 0 C 86.960938 0 105.09375 -19.464844 105.09375 -54.175781 C 105.09375 -87.628906 86.742188 -106.871094 54.988281 -106.871094 Z M 35.304688 -87.777344 L 51.4375 -87.777344 C 70.828125 -87.777344 82.300781 -75.417969 82.300781 -53.804688 C 82.300781 -31.234375 71.199219 -19.09375 51.4375 -19.09375 L 35.304688 -19.09375 Z M 35.304688 -87.777344 "/></g></g></g><g fill="#ffffff" fill-opacity="1"><g transform="translate(36.076806, 121.992651)"><g><path d="M 8.425781 -69.511719 L 8.425781 0 L 35.765625 0 C 56.5625 0 68.355469 -12.660156 68.355469 -35.238281 C 68.355469 -56.996094 56.417969 -69.511719 35.765625 -69.511719 Z M 22.960938 -57.09375 L 33.457031 -57.09375 C 46.070312 -57.09375 53.53125 -49.054688 53.53125 -34.996094 C 53.53125 -20.316406 46.308594 -12.417969 33.457031 -12.417969 L 22.960938 -12.417969 Z M 22.960938 -57.09375 "/></g></g></g></svg>